<?xml version="1.0" standalone="no"?>
<!DOCTYPE svg PUBLIC "-//W3C//DTD SVG 20010904//EN"
 "http://www.w3.org/TR/2001/REC-SVG-20010904/DTD/svg10.dtd">
<svg version="1.0" xmlns="http://www.w3.org/2000/svg"
 width="512.000000pt" height="512.000000pt" viewBox="0 0 512.000000 512.000000"
 preserveAspectRatio="xMidYMid meet">

<g transform="translate(0.000000,512.000000) scale(0.100000,-0.100000)"
fill="#000000" stroke="none">
<path d="M1825 4506 c-107 -34 -186 -102 -232 -201 -24 -51 -28 -73 -28 -145
0 -72 4 -94 28 -146 36 -77 104 -145 182 -181 48 -22 75 -27 135 -28 41 0 91
4 110 8 l35 8 194 -363 c106 -200 195 -365 197 -367 2 -3 20 3 40 12 l35 17
-39 73 c-111 202 -352 659 -352 665 0 10 64 72 74 72 4 0 131 -77 282 -171
151 -94 280 -169 287 -166 13 5 43 55 36 60 -2 2 -129 81 -281 176 -153 95
-278 174 -278 176 0 2 7 32 16 67 39 149 -25 308 -157 393 -78 50 -199 68
-284 41z m185 -82 c39 -12 66 -29 104 -67 206 -207 3 -544 -279 -463 -79 23
-156 100 -179 176 -34 113 -11 206 68 286 80 79 173 102 286 68z"/>
<path d="M1852 4349 c-48 -14 -109 -80 -123 -131 -23 -89 12 -182 88 -229 57
-36 154 -34 210 3 62 41 88 90 88 168 0 77 -26 127 -85 166 -43 29 -125 39
-178 23z m152 -108 c26 -27 31 -39 31 -81 0 -43 -5 -54 -33 -82 -28 -28 -39
-33 -82 -33 -43 0 -54 5 -82 33 -28 28 -33 39 -33 81 0 52 25 92 70 112 37 16
96 3 129 -30z"/>
<path d="M1210 3764 c-151 -95 -279 -173 -284 -174 -5 0 -27 16 -49 36 -22 20
-65 48 -96 63 -47 22 -70 26 -141 26 -72 0 -94 -4 -146 -28 -77 -36 -145 -104
-181 -182 -24 -51 -28 -73 -28 -145 0 -72 4 -94 28 -145 37 -79 104 -147 181
-181 49 -23 76 -28 136 -29 41 0 91 4 110 8 l35 8 123 -230 123 -231 -123
-231 -123 -230 -35 8 c-19 4 -69 8 -110 8 -60 -1 -87 -6 -136 -29 -77 -34
-144 -102 -181 -181 -40 -86 -40 -204 0 -290 36 -78 104 -146 181 -182 52 -24
74 -28 146 -28 71 0 94 4 141 26 31 15 74 43 96 63 22 20 44 36 48 36 4 0 130
-77 281 -171 151 -94 280 -169 287 -166 13 5 43 55 36 60 -2 2 -129 81 -282
176 -249 155 -278 175 -272 195 29 101 29 171 0 272 -6 19 23 40 262 189 147
92 274 173 282 180 11 11 10 18 -8 44 l-21 30 -273 -171 c-149 -94 -278 -173
-285 -176 -13 -4 -82 54 -82 70 0 7 207 398 215 406 1 2 24 -37 50 -85 27 -48
50 -90 52 -92 2 -3 19 3 38 12 l36 17 -52 98 c-29 53 -58 107 -66 120 -11 19
-11 25 0 45 8 12 37 66 66 119 l52 98 -36 17 c-19 9 -36 15 -38 12 -2 -2 -25
-44 -52 -92 -26 -48 -49 -87 -50 -85 -8 8 -215 399 -215 406 0 10 63 72 74 72
4 0 131 -77 282 -171 151 -94 280 -169 287 -166 13 5 43 55 36 60 -2 2 -129
81 -282 176 -248 154 -278 176 -272 195 23 81 28 138 16 199 -7 34 -14 70 -14
80 -2 14 68 62 272 190 151 95 276 177 278 182 1 6 -7 22 -20 36 l-22 26 -275
-173z m-480 -140 c76 -23 153 -100 176 -179 63 -219 -132 -414 -351 -351 -79
23 -156 100 -179 176 -34 113 -11 206 68 286 80 79 173 102 286 68z m0 -1600
c76 -23 153 -100 176 -179 63 -219 -132 -414 -351 -351 -79 23 -156 100 -179
176 -34 113 -11 206 68 286 80 79 173 102 286 68z"/>
<path d="M572 3549 c-48 -14 -109 -80 -123 -131 -23 -89 12 -182 88 -229 57
-36 154 -34 210 3 62 41 88 90 88 168 0 77 -26 127 -85 166 -43 29 -125 39
-178 23z m152 -108 c26 -27 31 -39 31 -81 0 -43 -5 -54 -33 -82 -28 -28 -39
-33 -82 -33 -43 0 -54 5 -82 33 -28 28 -33 39 -33 81 0 52 25 92 70 112 37 16
96 3 129 -30z"/>
<path d="M572 1949 c-48 -14 -109 -80 -123 -131 -23 -89 12 -182 88 -229 57
-36 154 -34 210 3 62 41 88 90 88 168 0 77 -26 127 -85 166 -43 29 -125 39
-178 23z m152 -108 c26 -27 31 -39 31 -81 0 -43 -5 -54 -33 -82 -28 -28 -39
-33 -82 -33 -43 0 -54 5 -82 33 -28 28 -33 39 -33 81 0 52 25 92 70 112 37 16
96 3 129 -30z"/>
<path d="M1535 3523 c-66 -125 -141 -267 -167 -315 l-46 -87 34 -20 34 -20 12
22 c7 12 83 155 169 317 l158 294 -30 18 c-16 10 -33 18 -37 18 -4 0 -61 -103
-127 -227z"/>
<path d="M3105 3706 c-107 -34 -186 -102 -232 -201 -24 -51 -28 -73 -28 -145
0 -72 4 -94 28 -146 36 -77 104 -145 182 -181 51 -24 73 -28 145 -28 71 0 94
4 141 26 31 15 74 43 96 63 22 20 44 36 48 36 4 0 130 -77 281 -171 151 -94
280 -169 287 -166 13 5 43 55 36 60 -2 2 -129 81 -281 176 -153 95 -278 174
-278 176 0 2 7 32 16 67 39 149 -25 308 -157 393 -78 50 -199 68 -284 41z
m185 -82 c39 -12 66 -29 104 -67 206 -207 3 -544 -279 -463 -79 23 -156 100
-179 176 -34 113 -11 206 68 286 80 79 173 102 286 68z"/>
<path d="M3132 3549 c-48 -14 -109 -80 -123 -131 -23 -89 12 -182 88 -229 57
-36 154 -34 210 3 62 41 88 90 88 168 0 77 -26 127 -85 166 -43 29 -125 39
-178 23z m152 -108 c26 -27 31 -39 31 -81 0 -43 -5 -54 -33 -82 -28 -28 -39
-33 -82 -33 -43 0 -54 5 -82 33 -28 28 -33 39 -33 81 0 52 25 92 70 112 37 16
96 3 129 -30z"/>
<path d="M2490 2964 c-151 -95 -279 -173 -284 -174 -5 0 -27 16 -49 36 -22 20
-65 48 -96 63 -47 22 -70 26 -141 26 -72 0 -94 -4 -146 -28 -77 -36 -145 -104
-181 -182 -24 -51 -28 -73 -28 -145 0 -72 4 -94 28 -145 36 -78 104 -146 181
-182 52 -24 74 -28 146 -28 71 0 94 4 141 26 31 15 74 43 96 63 22 20 44 36
48 36 4 0 130 -77 281 -171 151 -94 280 -169 287 -166 13 5 43 55 36 60 -2 2
-129 81 -282 176 -249 155 -278 175 -272 195 23 81 28 138 16 199 -7 34 -14
70 -14 80 -2 14 68 62 272 190 151 95 276 177 278 182 1 6 -7 22 -20 36 l-22
26 -275 -173z m-480 -140 c76 -23 153 -100 176 -179 63 -219 -132 -414 -351
-351 -79 23 -156 100 -179 176 -34 113 -11 206 68 286 80 79 173 102 286 68z"/>
<path d="M1852 2749 c-48 -14 -109 -80 -123 -131 -23 -89 12 -182 88 -229 57
-36 154 -34 210 3 62 41 88 90 88 168 0 77 -26 127 -85 166 -43 29 -125 39
-178 23z m152 -108 c26 -27 31 -39 31 -81 0 -43 -5 -54 -33 -82 -28 -28 -39
-33 -82 -33 -43 0 -54 5 -82 33 -28 28 -33 39 -33 81 0 52 25 92 70 112 37 16
96 3 129 -30z"/>
<path d="M2866 2817 c-100 -192 -86 -184 -142 -78 -27 50 -52 91 -57 91 -4 0
-21 -7 -38 -15 l-29 -16 41 -77 c23 -42 53 -96 66 -119 l24 -43 -24 -42 c-13
-24 -43 -78 -66 -120 l-41 -77 29 -16 c17 -8 34 -15 38 -15 5 0 30 41 57 91
56 105 42 113 141 -76 37 -71 70 -132 72 -134 2 -3 19 3 38 12 33 15 35 19 24
40 -6 12 -50 93 -96 180 l-84 157 84 158 c46 86 89 167 96 179 10 20 8 24 -18
38 -17 8 -34 15 -38 15 -4 0 -39 -60 -77 -133z"/>
<path d="M4385 2906 c-107 -34 -186 -102 -232 -201 -24 -51 -28 -73 -28 -145
0 -72 4 -94 28 -146 36 -77 104 -145 182 -181 51 -24 73 -28 145 -28 72 0 94
4 145 28 78 36 146 104 182 181 24 52 28 74 28 146 0 72 -4 94 -28 145 -30 65
-81 124 -138 160 -78 50 -199 68 -284 41z m185 -82 c39 -12 66 -29 104 -67
206 -207 3 -544 -279 -463 -79 23 -156 100 -179 176 -34 113 -11 206 68 286
80 79 173 102 286 68z"/>
<path d="M4412 2749 c-48 -14 -109 -80 -123 -131 -23 -89 12 -182 88 -229 57
-36 154 -34 210 3 62 41 88 90 88 168 0 77 -26 127 -85 166 -43 29 -125 39
-178 23z m152 -108 c26 -27 31 -39 31 -81 0 -43 -5 -54 -33 -82 -28 -28 -39
-33 -82 -33 -43 0 -54 5 -82 33 -28 28 -33 39 -33 81 0 52 25 92 70 112 37 16
96 3 129 -30z"/>
<path d="M3770 2164 c-146 -92 -271 -168 -278 -171 -6 -3 -31 12 -53 32 -71
64 -140 90 -239 90 -72 0 -94 -4 -146 -28 -77 -36 -145 -104 -181 -182 -24
-51 -28 -73 -28 -145 0 -72 4 -94 28 -145 36 -78 104 -146 181 -182 52 -24 74
-28 146 -28 72 0 94 4 146 28 159 73 243 248 200 415 -9 35 -16 65 -16 67 0 2
120 79 268 170 147 92 273 173 280 180 12 11 11 17 -3 39 -10 14 -22 26 -29
26 -6 -1 -130 -75 -276 -166z m-480 -140 c76 -23 153 -100 176 -179 63 -219
-132 -414 -351 -351 -79 23 -156 100 -179 176 -34 113 -11 206 68 286 80 79
173 102 286 68z"/>
<path d="M3132 1949 c-48 -14 -109 -80 -123 -131 -23 -89 12 -182 88 -229 57
-36 154 -34 210 3 62 41 88 90 88 168 0 77 -26 127 -85 166 -43 29 -125 39
-178 23z m152 -108 c26 -27 31 -39 31 -81 0 -43 -5 -54 -33 -82 -28 -28 -39
-33 -82 -33 -43 0 -54 5 -82 33 -28 28 -33 39 -33 81 0 52 25 92 70 112 37 16
96 3 129 -30z"/>
<path d="M1354 2018 l-32 -18 163 -306 c90 -168 167 -310 173 -316 7 -7 20 -4
38 8 16 10 30 18 31 19 4 2 -326 618 -335 626 -4 3 -21 -2 -38 -13z"/>
<path d="M2250 1664 l-195 -365 -35 8 c-19 4 -69 8 -110 8 -60 -1 -87 -6 -135
-28 -78 -36 -146 -104 -182 -181 -24 -52 -28 -74 -28 -146 0 -72 4 -94 28
-146 36 -77 104 -145 182 -181 51 -24 73 -28 145 -28 72 0 94 4 145 28 161 75
244 247 201 415 -9 35 -16 65 -16 67 0 2 120 79 268 170 147 92 273 173 280
180 12 11 11 17 -3 39 -10 14 -22 26 -27 26 -6 0 -133 -76 -283 -170 -150 -93
-277 -170 -282 -170 -10 0 -73 63 -73 73 0 6 249 476 352 664 l39 72 -30 16
c-17 8 -34 15 -38 15 -4 0 -96 -165 -203 -366z m-240 -440 c76 -23 153 -100
176 -179 63 -219 -132 -414 -351 -351 -79 23 -156 100 -179 176 -34 113 -11
206 68 286 80 79 173 102 286 68z"/>
<path d="M1852 1149 c-48 -14 -109 -80 -123 -131 -23 -89 12 -182 88 -229 57
-36 154 -34 210 3 62 41 88 90 88 168 0 77 -26 127 -85 166 -43 29 -125 39
-178 23z m152 -108 c26 -27 31 -39 31 -81 0 -43 -5 -54 -33 -82 -28 -28 -39
-33 -82 -33 -43 0 -54 5 -82 33 -28 28 -33 39 -33 81 0 52 25 92 70 112 37 16
96 3 129 -30z"/>
</g>
</svg>
